# xmcd
#
# Track frame offsets:
#	150
#	8959
#	23774
#	41113
#	60602
#	83561
#	94076
#	108706
#	126096
#	144419
#
# Disc length: 2132 seconds
#
# Revision: 0
# Processed by: cddbd v1.5PL3 Copyright (c) Steve Scherf et al.
# Submitted via: dBpowerAMP V4.0
#
DISCID=7e08520a
DTITLE=Johnny Paycheck - Live In Branson, Mo. USA
DYEAR=1900
DGENRE=Country
TTITLE0=Ragged But Right
TTITLE1=She's All I Got
TTITLE2=Once You've Had The Best
TTITLE3=Colorado Kool-Aid
TTITLE4=Old Violin
TTITLE5=A-11
TTITLE6=For A Minute There
TTITLE7=11 Months And 29 Days
TTITLE8=In Momory Of A Memory
TTITLE9=I'm The Only Hell ( My Mama Ever Raised )
EXTD=Artist Johnny Paycheck       Name of AlbumLive In Branson, MO. USA
EXTT0=
EXTT1=
EXTT2=
EXTT3=
EXTT4=
EXTT5=
EXTT6=
EXTT7=
EXTT8=
EXTT9=
PLAYORDER=
